<?xml version="1.0" encoding="UTF-8" standalone="no"?>
<!-- Created with Inkscape (http://www.inkscape.org/) -->

<svg
   width="385.17505"
   height="352.63599"
   viewBox="0 0 101.9109 93.301604"
   version="1.1"
   id="svg1"
   xml:space="preserve"
   xmlns="http://www.w3.org/2000/svg"
   xmlns:svg="http://www.w3.org/2000/svg"><defs
     id="defs1" /><g
     id="layer1"
     transform="translate(-137.46916,-1.5983526)"><path
       id="path22"
       style="baseline-shift:baseline;display:inline;overflow:visible;fill:#979797;fill-opacity:1;stroke:#393939;stroke-width:3.25669;stroke-linecap:butt;stroke-linejoin:miter;stroke-dasharray:none;stroke-opacity:1;enable-background:accumulate;stop-color:#000000"
       d="m 226.11157,3.2344441 c -3.68594,0.060718 -7.37239,0.092106 -11.05879,0.069929 -2.4772,0.023701 -4.95394,0.087713 -7.43044,0.1482647 -1.27045,0.037391 -2.55198,0.109611 -3.78819,0.4337299 -1.11252,0.3089453 -2.21624,0.6592365 -3.27332,1.1347281 -1.20784,0.5020925 -2.37854,1.1127906 -3.44436,1.886654 -0.76323,0.5575571 -1.50453,1.1486882 -2.22813,1.7583866 -0.49485,0.4805709 -0.99863,0.9526923 -1.46818,1.4597816 -0.90586,1.016628 -1.74039,2.10343 -2.47807,3.25434 -0.50374,0.850371 -0.98402,1.719659 -1.33289,2.650901 -0.2515,0.56807 -0.45809,1.1567 -0.64919,1.748466 -0.14061,0.443943 -0.16014,0.912939 -0.29724,1.358419 -0.137,0.713594 -0.24911,1.43228 -0.39982,2.143315 -0.05,0.501652 -0.15766,0.995704 -0.19988,1.497384 0.0523,0.333763 -0.0919,0.663212 -0.0146,1.003532 0.0452,0.619654 -0.10462,1.233677 -0.0902,1.854223 -0.0586,0.688228 -0.0328,1.381496 0.0263,2.068928 0.0362,1.238792 -0.0577,2.477939 -0.0598,3.717204 -0.0889,5.07025 -0.0209,10.141353 -0.052,15.211998 -0.0191,9.930187 -0.0434,19.860427 -0.0443,29.79063 0.0367,5.245974 0.003,10.492223 -0.0281,15.738011 0.0346,0.354473 -0.16084,0.83893 0.19633,1.070843 0.37626,0.1851 0.61583,-0.252082 0.73113,-0.552364 0.37254,-1.011361 0.81342,-1.995402 1.21414,-2.995718 0.59783,-1.44898 1.19855,-2.897573 1.82569,-4.333023 0.39434,-0.802737 1.07912,-1.398308 1.73914,-1.965649 1.23107,-0.980223 2.62566,-1.719845 4.05147,-2.350724 1.37679,-0.599841 2.84197,-0.982931 4.33252,-1.113228 2.26003,-0.248038 4.53642,-0.222516 6.80593,-0.270416 6.60388,-0.09098 13.20853,-0.0991 19.81266,-0.168887 2.64314,-0.02708 5.28664,-0.05429 7.92941,-0.09373 0.42242,-0.01598 0.73843,-0.387209 0.8183,-0.793663 0.16362,-0.650773 0.11667,-1.333209 0.17001,-1.99871 0.10541,-1.978891 0.12925,-3.961264 0.15778,-5.942576 0.0633,-13.192546 0.0915,-26.385257 0.11004,-39.577924 -0.0409,-6.21265 0.005,-12.425466 -0.0156,-18.638138 -0.0176,-2.435346 -0.0482,-4.8709106 -0.0297,-7.3062928 -0.0273,-0.370557 0.11483,-0.7768836 -0.0229,-1.1250873 -0.23847,-0.4071324 -0.75188,-0.4755104 -1.17301,-0.5057459 -2.53583,-0.3249983 -5.09611,-0.2202865 -7.6449,-0.268716 -0.8989,-0.010361 -1.79766,-0.00799 -2.69656,9.074e-4 z m -73.48876,0 c -4.16634,-0.002 -8.33285,-0.00923 -12.4988,0.058721 -0.4771,0.097324 -0.72761,0.6414413 -0.69491,1.1059107 -0.23073,5.4480222 -0.2045,10.9023492 -0.28559,16.3537892 -0.047,7.63925 -0.0403,15.278728 -0.046,22.918074 0.0337,1.951124 -0.0113,3.902589 0.0173,5.853867 0.0121,6.367065 0.006,12.734158 0.001,19.101205 0.0255,3.267083 0.0672,6.53393 0.12184,9.800627 0.14686,0.517955 0.71521,0.78107 1.20895,0.743791 2.73739,0.155046 5.47913,0.210771 8.21982,0.265686 4.15116,0.06852 8.30206,0.152636 12.45344,0.20649 4.01688,0.07875 8.03475,0.132606 12.04986,0.282223 1.662,0.081 3.33822,0.192063 4.95417,0.625562 1.567,0.469806 2.99583,1.350983 4.22793,2.441571 1.07545,0.959542 2.07234,2.024769 2.88226,3.232675 0.84474,1.250313 1.50641,2.63684 1.90421,4.105476 0.22933,0.776216 0.41623,1.564911 0.62864,2.346132 0.15201,0.345398 0.68874,0.218784 0.76154,-0.127264 0.0638,-0.383378 0.0609,-0.777626 0.10552,-1.165272 0.2204,-2.912835 0.28381,-5.835094 0.28547,-8.755893 0.0278,-4.557484 -0.0459,-9.114783 -0.0569,-13.67223 -0.0654,-11.639525 -0.10778,-23.279337 -0.23088,-34.918407 -0.0176,-1.802197 0.0472,-3.605143 -0.022,-5.406928 -0.0434,-1.387082 -0.0378,-2.776098 -0.1,-4.162213 -0.0409,-0.520468 -0.11641,-1.039063 -0.067,-1.56212 0.0468,-0.656823 -0.036,-1.311485 -0.0667,-1.967153 -0.0482,-0.539036 -0.205,-1.059936 -0.26071,-1.5983 -0.0973,-0.350263 -0.15328,-0.708293 -0.2141,-1.067854 -0.10858,-0.449754 -0.15368,-0.915929 -0.34201,-1.342967 -0.26473,-0.716639 -0.53317,-1.436423 -0.89667,-2.107641 -0.4235,-0.62548 -0.78349,-1.294752 -1.20417,-1.923063 -0.76014,-1.207017 -1.68269,-2.299322 -2.70721,-3.2759262 -0.57063,-0.5622618 -1.15467,-1.1108876 -1.75261,-1.6420023 -0.77679,-0.6093965 -1.60252,-1.1501507 -2.42127,-1.697354 -0.92926,-0.6244631 -1.95873,-1.0610452 -2.99609,-1.455539 -1.79897,-0.6976609 -3.70016,-1.0813334 -5.61202,-1.2557196 -1.9969,-0.1965785 -4.00484,-0.2325501 -6.00923,-0.2748434 -3.77927,-0.036518 -7.55887,-0.086054 -11.33834,-0.063152 z" /><path
       id="path21"
       style="baseline-shift:baseline;display:inline;overflow:visible;fill:#d7d7d7;fill-opacity:1;stroke:#3b3b3b;stroke-width:3.04095;stroke-linecap:butt;stroke-linejoin:miter;stroke-dasharray:none;stroke-opacity:1;enable-background:accumulate;stop-color:#000000"
       d="m 221.70788,9.3415976 c -3.2615,0.05226 -6.52344,0.07927 -9.78534,0.060179 -2.19194,0.020401 -4.38348,0.075488 -6.57481,0.1276051 -1.12414,0.032181 -2.2581,0.094338 -3.35196,0.3732931 -0.9844,0.2658952 -1.96103,0.5673762 -2.89637,0.9766102 -1.06876,0.43213 -2.10464,0.957731 -3.04773,1.623761 -0.67535,0.479865 -1.33128,0.988626 -1.97155,1.513367 -0.43789,0.413606 -0.88364,0.819939 -1.29912,1.256369 -0.80155,0.874968 -1.53998,1.810331 -2.19271,2.800869 -0.44573,0.731877 -0.87071,1.480036 -1.17941,2.281515 -0.22253,0.488913 -0.40535,0.995521 -0.57443,1.504829 -0.12441,0.382081 -0.1417,0.785725 -0.26301,1.169131 -0.12123,0.61416 -0.22043,1.232702 -0.35378,1.844658 -0.0443,0.431749 -0.1395,0.856959 -0.17686,1.288733 0.0463,0.287256 -0.0814,0.570797 -0.0129,0.863696 0.04,0.53331 -0.0926,1.061773 -0.0798,1.595849 -0.0518,0.592328 -0.029,1.188993 0.0233,1.780636 0.0319,1.066174 -0.0511,2.132654 -0.0529,3.199235 -0.0786,4.363743 -0.0185,8.72822 -0.046,13.092303 -0.0169,8.546479 -0.0384,17.093004 -0.0392,25.639495 0.0324,4.514974 0.003,9.030189 -0.0249,13.545014 0.0306,0.30508 -0.14231,0.722036 0.17372,0.921642 0.33294,0.159309 0.54493,-0.216972 0.64694,-0.4754 0.32966,-0.870428 0.71976,-1.717351 1.07433,-2.578285 0.52899,-1.247076 1.06053,-2.493807 1.61545,-3.729241 0.34893,-0.690878 0.95486,-1.203459 1.53887,-1.691743 1.08931,-0.843648 2.32332,-1.480197 3.58494,-2.023166 1.21825,-0.516259 2.5147,-0.84597 3.83361,-0.95811 1.99977,-0.213478 4.01403,-0.191526 6.0222,-0.232753 5.84342,-0.07827 11.68753,-0.08528 17.53116,-0.145333 2.33877,-0.02333 4.67787,-0.04678 7.01632,-0.08068 0.37376,-0.01379 0.65338,-0.33325 0.72407,-0.683073 0.14477,-0.560095 0.10321,-1.147429 0.15042,-1.720201 0.0932,-1.703145 0.11436,-3.409289 0.1396,-5.114514 0.056,-11.354255 0.081,-22.708646 0.0974,-34.062999 -0.0362,-5.346956 0.005,-10.694057 -0.0138,-16.041032 -0.0155,-2.095996 -0.0426,-4.19218 -0.0263,-6.288207 -0.0241,-0.318923 0.1016,-0.66863 -0.0203,-0.968315 -0.21102,-0.3504005 -0.6653,-0.40925 -1.03794,-0.4352721 -2.24382,-0.279713 -4.50927,-0.1895912 -6.76456,-0.231273 -0.79538,-0.00896 -1.59065,-0.0069 -2.38604,7.815e-4 z m -65.02626,0 c -3.68658,-0.00172 -7.37329,-0.00793 -11.05951,0.050536 -0.42217,0.083764 -0.64383,0.552061 -0.6149,0.9518094 -0.20416,4.688876 -0.18095,9.383176 -0.25269,14.074993 -0.0416,6.574769 -0.0356,13.149735 -0.0407,19.724586 0.0298,1.679247 -0.009,3.358789 0.0153,5.038169 0.0103,5.479854 0.006,10.959733 0.001,16.43958 0.0225,2.81183 0.0595,5.623463 0.1078,8.434971 0.12995,0.445782 0.63285,0.672224 1.06974,0.640146 2.42217,0.133438 4.84819,0.1814 7.27328,0.228661 3.67314,0.05896 7.34604,0.131369 11.01938,0.177722 3.55431,0.06781 7.10951,0.114129 10.66226,0.242889 1.47062,0.06977 2.95381,0.165309 4.38369,0.538395 1.38655,0.404348 2.65085,1.162738 3.74107,2.101356 0.95161,0.825833 1.8337,1.742635 2.55036,2.782222 0.74746,1.07609 1.33293,2.269411 1.68492,3.533406 0.20292,0.668052 0.3683,1.34685 0.55625,2.019212 0.13451,0.297276 0.60943,0.188296 0.67384,-0.109532 0.0566,-0.329951 0.0539,-0.66927 0.0933,-1.002899 0.19501,-2.506945 0.25112,-5.022004 0.25259,-7.535811 0.0246,-3.922433 -0.0406,-7.844694 -0.0503,-11.767093 -0.0579,-10.017634 -0.0954,-20.035512 -0.2043,-30.052752 -0.0155,-1.551072 0.0418,-3.102789 -0.0194,-4.653507 -0.0384,-1.193801 -0.0336,-2.389266 -0.0885,-3.582234 -0.0362,-0.447945 -0.10298,-0.894276 -0.0593,-1.344449 0.0414,-0.565298 -0.032,-1.128737 -0.059,-1.693042 -0.0426,-0.463925 -0.18138,-0.912241 -0.23068,-1.375587 -0.0861,-0.301456 -0.13563,-0.609597 -0.18946,-0.919057 -0.0961,-0.387084 -0.13597,-0.7883 -0.30262,-1.155832 -0.23425,-0.61678 -0.47176,-1.236268 -0.79342,-1.813954 -0.37473,-0.538323 -0.69327,-1.114337 -1.0655,-1.655098 -0.67261,-1.038826 -1.48892,-1.978926 -2.39546,-2.819446 -0.50493,-0.483915 -1.0217,-0.956093 -1.55079,-1.4132 -0.68734,-0.524481 -1.41799,-0.989884 -2.14246,-1.460838 -0.82225,-0.537449 -1.73318,-0.913196 -2.65107,-1.252719 -1.59182,-0.600447 -3.27408,-0.9306572 -4.96578,-1.0807433 -1.76695,-0.169187 -3.54368,-0.2001455 -5.31725,-0.2365462 -3.34408,-0.031434 -6.68843,-0.074063 -10.03268,-0.054352 z" /><path
       id="path14"
       style="baseline-shift:baseline;display:inline;overflow:visible;fill:#ffffff;fill-opacity:1;stroke:#373737;stroke-width:2.73001;stroke-linecap:butt;stroke-linejoin:miter;stroke-dasharray:none;stroke-opacity:1;enable-background:accumulate;stop-color:#000000"
       d="m 217.431,14.851411 c -2.81539,0.04511 -5.63116,0.06843 -8.4469,0.05195 -1.89212,0.01761 -3.7839,0.06516 -5.6755,0.110151 -0.97038,0.02778 -1.94924,0.08143 -2.89348,0.322234 -0.84976,0.229525 -1.6928,0.48977 -2.50021,0.843029 -0.92257,0.373024 -1.81677,0.826732 -2.63086,1.401663 -0.58298,0.41423 -1.14919,0.853403 -1.70188,1.30637 -0.37799,0.357033 -0.76278,0.707787 -1.12143,1.084522 -0.6919,0.75529 -1.32934,1.562713 -1.89279,2.417766 -0.38475,0.631771 -0.75161,1.277597 -1.01808,1.96945 -0.1921,0.422039 -0.34991,0.859354 -0.49586,1.298998 -0.1074,0.32982 -0.12232,0.678253 -0.22704,1.009217 -0.10465,0.530155 -0.19028,1.064093 -0.30539,1.592345 -0.0382,0.372695 -0.12042,0.739745 -0.15267,1.11246 0.0399,0.247965 -0.0703,0.492724 -0.0111,0.74556 0.0346,0.460364 -0.08,0.916544 -0.0688,1.377568 -0.0448,0.51131 -0.025,1.026364 0.0201,1.537082 0.0276,0.920342 -0.0442,1.84095 -0.0456,2.761643 -0.0679,3.766871 -0.016,7.534374 -0.0397,11.301538 -0.0145,7.377491 -0.0331,14.755013 -0.0339,22.132515 0.028,3.897415 0.003,7.79505 -0.0216,11.692332 0.0264,0.26335 -0.12285,0.623278 0.14995,0.795581 0.2874,0.137521 0.4704,-0.187295 0.55845,-0.410374 0.28457,-0.751368 0.62132,-1.48245 0.92739,-2.225626 0.45663,-1.076504 0.91546,-2.152708 1.39449,-3.219162 0.3012,-0.596382 0.82425,-1.038845 1.32839,-1.460342 0.9403,-0.728255 2.00553,-1.277738 3.09458,-1.746441 1.05161,-0.445641 2.17074,-0.730257 3.30925,-0.827062 1.72624,-0.184272 3.46499,-0.165328 5.19848,-0.200915 5.04416,-0.06758 10.08891,-0.07357 15.13325,-0.125458 2.01887,-0.02012 4.03803,-0.04034 6.05662,-0.06965 0.32265,-0.01187 0.56402,-0.28766 0.62503,-0.589641 0.12498,-0.483478 0.0891,-0.990481 0.12986,-1.484907 0.0805,-1.470193 0.0987,-2.942965 0.1205,-4.414948 0.0483,-9.801218 0.07,-19.602555 0.084,-29.40386 -0.0313,-4.615599 0.004,-9.231323 -0.0119,-13.846939 -0.0134,-1.809305 -0.0368,-3.618774 -0.0227,-5.428106 -0.0208,-0.2753 0.0877,-0.577175 -0.0175,-0.835868 -0.18216,-0.302473 -0.5743,-0.353273 -0.89597,-0.375736 -1.93691,-0.241454 -3.89249,-0.163659 -5.8393,-0.19964 -0.68659,-0.0077 -1.37309,-0.006 -2.05968,6.75e-4 z m -56.13196,0 c -3.18232,-0.0014 -6.36477,-0.0068 -9.5468,0.04362 -0.36442,0.07231 -0.55576,0.47655 -0.53079,0.821621 -0.17623,4.047531 -0.15619,8.099745 -0.21812,12.149814 -0.0359,5.675473 -0.0308,11.351115 -0.0351,17.026658 0.0257,1.449559 -0.008,2.899373 0.0132,4.349047 0.009,4.73032 0.005,9.460661 0.001,14.190974 0.0194,2.42722 0.0514,4.854288 0.0931,7.281232 0.11216,0.384805 0.54628,0.580283 0.92341,0.552589 2.09086,0.115182 4.18505,0.156588 6.27844,0.197386 3.17073,0.05087 6.34125,0.113397 9.51215,0.153411 3.06815,0.0585 6.13707,0.09854 9.20387,0.209665 1.26948,0.06026 2.5498,0.1427 3.7841,0.46475 1.19689,0.349043 2.28825,1.003699 3.22936,1.813932 0.82145,0.712881 1.58289,1.504287 2.20152,2.401678 0.64522,0.928902 1.15061,1.959005 1.45446,3.050109 0.17516,0.576671 0.31793,1.162629 0.48017,1.743025 0.11611,0.256613 0.52607,0.162542 0.58167,-0.09451 0.0488,-0.284822 0.0465,-0.577724 0.0806,-0.865724 0.16834,-2.164048 0.21677,-4.335091 0.21804,-6.505064 0.0213,-3.385924 -0.035,-6.771693 -0.0434,-10.15758 -0.05,-8.647428 -0.0823,-17.295061 -0.17635,-25.942142 -0.0134,-1.338917 0.0361,-2.678391 -0.0167,-4.017 -0.0331,-1.030514 -0.029,-2.062463 -0.0764,-3.092257 -0.0313,-0.386675 -0.0889,-0.771957 -0.0512,-1.160555 0.0357,-0.487977 -0.0275,-0.974349 -0.0509,-1.461468 -0.0368,-0.400469 -0.15658,-0.787465 -0.19913,-1.187434 -0.0743,-0.260223 -0.11708,-0.526217 -0.16354,-0.793349 -0.083,-0.334139 -0.11738,-0.680476 -0.26123,-0.997736 -0.20221,-0.532417 -0.40724,-1.067171 -0.6849,-1.565843 -0.32347,-0.46469 -0.59844,-0.961917 -0.91976,-1.428712 -0.5806,-0.896736 -1.28527,-1.708249 -2.06781,-2.433803 -0.43586,-0.417724 -0.88195,-0.825318 -1.33867,-1.219903 -0.59332,-0.452741 -1.22404,-0.854487 -1.84941,-1.261024 -0.70979,-0.463937 -1.49612,-0.788289 -2.28846,-1.081372 -1.37408,-0.518317 -2.82625,-0.803361 -4.28656,-0.932919 -1.52527,-0.146046 -3.05897,-0.17277 -4.58996,-0.204191 -2.88667,-0.02714 -5.77359,-0.06393 -8.66041,-0.04692 z" /></g></svg>
