<?xml version="1.0" encoding="UTF-8" standalone="no"?>
<!-- Created with Inkscape (http://www.inkscape.org/) -->

<svg
   width="448.01282"
   height="333.76477"
   viewBox="0 0 118.53672 88.308594"
   version="1.1"
   id="svg1"
   xml:space="preserve"
   xmlns="http://www.w3.org/2000/svg"
   xmlns:svg="http://www.w3.org/2000/svg"><defs
     id="defs1" /><g
     id="layer1"
     transform="translate(-128.63571,-134.38313)"><path
       style="fill:#ffffff;fill-opacity:1;stroke:#000000;stroke-width:2.95349;stroke-dasharray:none;stroke-opacity:1"
       d="m 187.77776,135.89372 c -1.07489,0.73391 -1.64402,2.07906 -1.55015,3.36193 -0.0169,1.14965 -0.009,2.29942 -0.002,3.44913 -1.24477,1.57131 -2.52345,3.134 -3.49274,4.89681 -0.34861,0.49846 -1.00694,0.60722 -1.57413,0.60611 -1.94993,0.11404 -3.90433,0.0471 -5.8549,-0.0122 -1.08644,-0.0442 -2.17843,-0.13011 -3.23996,-0.37334 -0.37339,-0.10649 -0.71831,-0.39401 -0.78653,-0.79108 -0.28395,-0.86681 -0.29513,-1.79743 -0.59978,-2.6593 -0.52109,-1.77868 -1.68111,-3.4184 -3.33488,-4.30308 -1.13859,-0.61837 -2.4576,-0.80036 -3.73818,-0.77585 -2.4371,-0.0526 -4.86532,0.20771 -7.28741,0.44244 -1.87323,0.7919 -3.33979,2.40777 -4.07487,4.29071 -0.33627,0.80859 -0.77741,1.64324 -1.5545,2.10611 -1.95795,1.34425 -4.01372,2.60884 -5.62653,4.37869 -2.13896,2.39173 -3.63724,5.28056 -4.79494,8.25403 -1.57484,4.04572 -3.026,8.13836 -4.44265,12.24172 -1.46009,4.31463 -2.8632,8.65894 -3.85531,13.10872 -1.0896,4.89268 -1.77161,9.88741 -1.85384,14.9031 -0.0377,3.99831 0.45486,8.02584 1.70393,11.83363 0.97457,2.86278 2.51696,5.56618 4.67419,7.70288 1.15473,1.09107 2.5288,1.99867 4.08045,2.3993 0.98632,0.28144 2.02556,0.28845 3.04201,0.23046 1.01692,-0.0798 1.98963,-0.42245 2.9366,-0.78175 1.30348,-0.51279 2.52189,-1.23166 3.61282,-2.10925 0.59173,-0.44397 1.1654,-0.91377 1.67462,-1.45198 0.59382,-0.56139 1.24276,-1.07188 1.74006,-1.72722 0.55567,-0.6779 1.11653,-1.35142 1.68908,-2.01504 0.6933,-0.84067 1.38328,-1.68705 2.00825,-2.58004 1.58814,-2.33057 3.01014,-4.7677 4.46757,-7.18055 0.62876,-1.04341 1.23526,-2.09981 1.83234,-3.16149 0.63876,-1.08227 1.28351,-2.16154 1.8731,-3.27165 0.20404,-0.35882 0.41466,-0.75357 0.78335,-0.96601 0.53649,-0.22302 1.13018,-0.0768 1.6827,-0.004 1.09319,0.1575 2.1705,0.46552 3.28233,0.45686 0.50667,0.0221 1.011,-0.0273 1.50823,-0.12375 0.51956,-0.0834 1.02848,-0.21207 1.54028,-0.33142 1.83634,-0.46744 3.6377,-1.0614 5.46494,-1.56256 2.23745,-0.64853 4.5199,-1.23419 6.85974,-1.3141 3.29878,-0.14346 6.58166,0.46646 9.7418,1.36979 2.10145,0.59558 4.17768,1.27655 6.28199,1.86237 1.69431,0.19536 3.37409,-0.20233 5.05336,-0.36526 0.44854,-0.0521 0.89853,-0.0951 1.34999,-0.11007 0.61086,0.10639 0.98693,0.66129 1.28352,1.15609 2.56122,4.24395 4.93613,8.60351 7.69052,12.72848 2.28868,3.36638 5.03714,6.45661 8.32621,8.87527 1.29384,0.94132 2.66643,1.83936 4.22729,2.26155 2.41484,0.67192 5.10407,0.33134 7.24891,-0.97712 1.84219,-1.08519 3.28738,-2.7629 4.26918,-4.64824 1.87252,-3.36124 2.91067,-7.13708 3.35592,-10.94454 0.55469,-4.66528 0.27416,-9.39118 -0.39015,-14.02963 -0.48507,-3.37093 -1.18096,-6.70931 -2.01321,-10.01082 -1.30537,-5.11631 -3.05592,-10.10601 -4.94584,-15.03225 -1.09592,-2.85681 -2.22746,-5.70077 -3.44253,-8.5092 -0.73428,-1.70963 -1.51836,-3.41623 -2.62267,-4.92383 -0.99745,-1.40231 -2.21997,-2.64381 -3.616,-3.65099 -1.14063,-0.86582 -2.37932,-1.59524 -3.51228,-2.47058 -0.92395,-0.83936 -1.37491,-2.03611 -2.05045,-3.05865 -0.62875,-1.02488 -1.44867,-1.97931 -2.5408,-2.52401 -1.35964,-0.72604 -2.94087,-0.89573 -4.45984,-0.81355 -2.29719,0.0631 -4.61857,0.12402 -6.86365,0.66071 -1.20185,0.36018 -2.13361,1.26593 -2.92653,2.19888 -0.54256,0.63614 -1.061,1.29241 -1.56121,1.96229 -0.29691,0.58355 -0.0918,1.2594 0.13883,1.82747 0.15148,0.39832 0.30076,0.79781 0.41931,1.20743 -0.0591,0.51524 -0.58383,0.80235 -1.04651,0.88954 -1.43985,0.29793 -2.91785,0.27249 -4.38025,0.32337 -1.93702,0.0401 -3.87481,0.0906 -5.8116,0.11179 -0.54023,-0.0613 -0.87472,-0.56404 -1.08885,-1.01557 -0.61945,-1.21236 -1.21938,-2.48455 -2.24392,-3.41562 -0.48944,-0.45035 -0.84371,-1.0906 -0.80827,-1.77071 -0.1686,-1.73692 -0.33721,-3.47384 -0.50582,-5.21077 -0.14209,-0.59795 -0.68986,-1.06483 -1.29724,-1.13372 z"
       id="path39" /><path
       style="fill:#ffffff;fill-opacity:1;stroke:#000000;stroke-width:2.64583;stroke-dasharray:none;stroke-opacity:1"
       d="m 177.43126,174.43554 c -1.33239,0.10007 -2.71417,0.27205 -3.88471,0.96605 -2.23118,1.28804 -3.51135,3.9826 -3.19291,6.52663 0.17831,1.89242 1.10852,3.74455 2.64988,4.88623 1.66113,1.21453 3.89085,1.56296 5.86051,0.99823 1.7739,-0.48016 3.38393,-1.67382 4.21371,-3.33221 0.92418,-1.86005 0.91072,-4.11832 0.0895,-6.01185 -0.70003,-1.64657 -2.03002,-3.06311 -3.72162,-3.69685 -0.64106,-0.24222 -1.32925,-0.35819 -2.01436,-0.33623 z"
       id="path40" /><path
       style="fill:#ffffff;fill-opacity:1;stroke:#000000;stroke-width:2.64583;stroke-dasharray:none;stroke-opacity:1"
       d="m 198.19349,174.41211 c -0.77719,0.11029 -1.55334,0.27321 -2.27386,0.59339 -0.43867,0.18574 -0.86657,0.40888 -1.25582,0.68374 -0.63443,0.48604 -1.23156,1.04146 -1.65203,1.72791 -1.25377,1.9451 -1.4651,4.49196 -0.63964,6.64316 0.61853,1.59424 1.87523,2.96898 3.48969,3.57882 0.95044,0.36299 1.98003,0.50723 2.99463,0.47245 1.6574,-0.0846 3.27813,-0.76751 4.50506,-1.88302 1.32702,-1.21217 2.15479,-2.97594 2.15881,-4.78086 0.0379,-1.90375 -0.71784,-3.82922 -2.11258,-5.13864 -1.33953,-1.2937 -3.22694,-1.94328 -5.0757,-1.89777 -0.0462,2.7e-4 -0.0924,5.4e-4 -0.13856,8.2e-4 z"
       id="path41" /><path
       style="fill:#ffffff;fill-opacity:1;stroke:#000000;stroke-width:2.64583;stroke-dasharray:none;stroke-opacity:1"
       d="m 218.42451,169.99842 c -1.22361,0.18448 -2.35629,0.91487 -3.03056,1.95175 -0.93437,1.47355 -0.84038,3.49798 0.17792,4.90562 0.50209,0.68817 1.21188,1.25678 2.04014,1.48834 0.52336,0.11738 1.05772,0.22045 1.59646,0.16461 0.83416,-0.0628 1.6449,-0.37582 2.32564,-0.85747 0.95065,-0.75108 1.64619,-1.87832 1.71734,-3.10482 0.0873,-1.28838 -0.36089,-2.65102 -1.35023,-3.51289 -0.90062,-0.77924 -2.12842,-1.10011 -3.30211,-1.05505 -0.0582,0.007 -0.1164,0.0133 -0.1746,0.0199 z"
       id="path42" /><path
       style="fill:#ffffff;fill-opacity:1;stroke:#000000;stroke-width:2.64583;stroke-dasharray:none;stroke-opacity:1"
       d="m 227.88154,161.39686 c -1.20154,0.041 -2.41568,0.49989 -3.24609,1.38867 -0.39297,0.39825 -0.70575,0.87838 -0.86721,1.41679 -0.20634,0.58673 -0.33134,1.21795 -0.22649,1.8388 0.17308,1.5729 1.2746,3.02654 2.78237,3.5428 1.43422,0.49846 3.12234,0.18873 4.26921,-0.8123 0.80892,-0.69401 1.35313,-1.71384 1.42024,-2.78249 0.0102,-0.63545 -0.0454,-1.28327 -0.28575,-1.87771 -0.19788,-0.60481 -0.532,-1.16875 -1.01003,-1.59386 -0.5979,-0.54974 -1.36337,-0.88726 -2.15532,-1.04246 -0.22218,-0.0555 -0.45148,-0.0894 -0.68093,-0.0782 z"
       id="path43" /><path
       style="fill:#ffffff;fill-opacity:1;stroke:#000000;stroke-width:2.64583;stroke-dasharray:none;stroke-opacity:1"
       d="m 209.95967,161.28163 c -0.73098,0.0645 -1.44076,0.32685 -2.06404,0.70989 -1.00434,0.62368 -1.74599,1.68237 -1.91917,2.85919 -0.16635,0.92901 0.0667,1.88864 0.46368,2.72975 0.58771,1.14121 1.7342,1.99672 3.01731,2.1549 1.51489,0.22989 3.16726,-0.35989 4.09645,-1.60007 0.91164,-1.17845 1.07217,-2.84865 0.50296,-4.21221 -0.56032,-1.42086 -1.95472,-2.46377 -3.47458,-2.6084 -0.20699,-0.0205 -0.41427,-0.0422 -0.62261,-0.033 z"
       id="path44" /><path
       style="fill:#ffffff;fill-opacity:1;stroke:#000000;stroke-width:2.64583;stroke-dasharray:none;stroke-opacity:1"
       d="m 191.47253,158.22893 c -3.67321,0.0844 -7.34712,0.0972 -11.01953,0.27488 -0.52094,0.0272 -1.04743,0.50303 -1.30469,1.36716 -0.24731,0.77049 -0.23736,1.82508 0.0898,2.51372 0.37061,0.89117 1.00673,1.22524 1.59278,1.1775 2.12914,0.12222 4.25969,0.1237 6.38964,0.14259 1.53631,-0.0189 3.07213,-0.10593 4.60856,-0.0993 1.1629,-0.0254 2.32743,-0.0378 3.48815,-0.17388 0.74175,-0.15871 1.35911,-1.59151 1.17578,-2.97177 -0.1563,-1.31423 -0.88897,-2.16791 -1.59186,-2.12585 -0.52272,7.6e-4 -1.04555,-0.0906 -1.569,-0.0893 -0.61977,-0.0237 -1.23979,-0.0193 -1.85967,-0.0167 z"
       id="path45" /><path
       style="fill:#ffffff;fill-opacity:1;stroke:#000000;stroke-width:2.64583;stroke-dasharray:none;stroke-opacity:1"
       d="m 155.48942,154.44998 c -0.55669,0.13402 -1.12854,0.26803 -1.61117,0.59123 -0.70798,0.3927 -1.28982,0.9951 -1.67789,1.70369 -0.56183,1.09744 -0.61876,2.35438 -0.73657,3.55781 -0.0365,0.30033 -0.043,0.61048 -0.12866,0.90117 -0.14119,0.2844 -0.49917,0.3335 -0.7842,0.32106 -1.22252,0.0432 -2.47011,0.028 -3.65441,0.37546 -0.98878,0.28255 -1.85313,0.94114 -2.41366,1.79986 -0.76566,1.13974 -1.01713,2.64813 -0.52288,3.9461 0.60438,1.65378 2.20388,2.87088 3.94682,3.06663 0.8534,0.0876 1.7131,0.0264 2.56925,0.0316 0.25171,0.0216 0.55221,-0.0838 0.75361,0.11747 0.2355,0.21774 0.25009,0.5573 0.24021,0.85598 0.0386,1.12714 -0.033,2.30821 0.44275,3.36149 0.86588,1.87783 3.13319,3.00116 5.14724,2.48789 1.13549,-0.26999 2.22524,-0.9582 2.76807,-2.01791 0.5375,-0.9763 0.61283,-2.11662 0.63493,-3.2079 0.0213,-0.423 0.0318,-0.84767 0.0988,-1.26666 0.1644,-0.32437 0.57834,-0.3407 0.89602,-0.31881 1.40098,-0.0187 2.85463,0.0328 4.17947,-0.49761 1.64695,-0.70402 2.77137,-2.49581 2.63917,-4.2895 -0.0649,-1.25239 -0.75323,-2.41622 -1.715,-3.19803 -0.62348,-0.55317 -1.38501,-1.00024 -2.23037,-1.07417 -0.96886,-0.14315 -1.9561,-0.23355 -2.9322,-0.10932 -0.27626,0.0286 -0.62149,-0.0423 -0.72676,-0.33565 -0.14984,-0.37598 -0.0786,-0.79109 -0.13216,-1.18457 -0.0432,-0.4906 -0.0232,-0.98407 -0.0501,-1.47473 -0.0797,-0.84823 -0.31762,-1.70473 -0.81232,-2.4075 -0.42596,-0.55821 -1.02754,-0.95105 -1.63027,-1.29534 -0.44883,-0.2597 -0.95398,-0.41999 -1.47379,-0.43782 -0.30225,-0.0122 -0.60799,-0.0576 -0.9084,-0.0435 -0.0585,0.0139 -0.11706,0.0277 -0.17559,0.0416 z"
       id="path46" /><path
       style="fill:#ffffff;fill-opacity:1;stroke:#000000;stroke-width:2.64583;stroke-dasharray:none;stroke-opacity:1"
       d="m 219.00068,153.47108 c -0.31652,0.003 -0.61315,0.13392 -0.92572,0.16255 -0.52122,0.13128 -1.02771,0.34806 -1.44739,0.68896 -0.23885,0.14572 -0.43557,0.34171 -0.6186,0.55131 -0.19549,0.19198 -0.39413,0.38613 -0.49427,0.64825 -0.15069,0.24395 -0.2978,0.49332 -0.36753,0.7751 -0.0559,0.26554 -0.21171,0.5035 -0.22485,0.77623 -0.0544,0.42713 -0.11805,0.85919 -0.0464,1.28874 0.0538,0.68073 0.25812,1.35029 0.63067,1.92527 0.43545,0.70908 1.11344,1.2667 1.90502,1.53081 1.58321,0.59084 3.4911,0.18109 4.69102,-1.00902 0.4274,-0.4236 0.72175,-0.96656 0.92538,-1.52772 0.096,-0.41007 0.19091,-0.82441 0.22858,-1.24407 0.0158,-0.80377 -0.10954,-1.63199 -0.51215,-2.33895 -0.22306,-0.37997 -0.46784,-0.75262 -0.76519,-1.07902 -0.20061,-0.18691 -0.41206,-0.36077 -0.61719,-0.54297 -0.21919,-0.17081 -0.50019,-0.2196 -0.74633,-0.33959 -0.3852,-0.16721 -0.80101,-0.24569 -1.21987,-0.25002 -0.13146,-0.008 -0.26336,-0.0251 -0.39513,-0.0159 z"
       id="path47" /></g></svg>
