<?xml version="1.0" encoding="UTF-8" standalone="no"?>
<!-- Created with Inkscape (http://www.inkscape.org/) -->

<svg
   width="306.43698"
   height="252.2816"
   viewBox="0 0 81.078117 66.749506"
   version="1.1"
   id="svg1"
   xml:space="preserve"
   xmlns="http://www.w3.org/2000/svg"
   xmlns:svg="http://www.w3.org/2000/svg"><defs
     id="defs1" /><g
     id="layer1"
     transform="translate(-37.271175,-21.705051)"><path
       id="path48"
       style="fill:#595959;fill-opacity:1;stroke:#9a9a9a;stroke-width:2.64583;stroke-linecap:round;stroke-linejoin:round;stroke-dasharray:none;stroke-opacity:1"
       d="m 69.783203,36.787109 c -0.545688,0.02171 -1.082698,0.160497 -1.630859,0.138672 -0.277551,0.05609 -0.550492,0.159678 -0.836755,0.136963 -0.658719,0.08654 -1.274298,0.350441 -1.926917,0.462647 -0.505703,0.207059 -1.078862,0.186526 -1.56626,0.444427 -0.563362,0.218224 -1.139429,0.406177 -1.672422,0.695332 -0.562282,0.26824 -1.144895,0.498241 -1.672392,0.832383 -0.745924,0.391533 -1.435974,0.879733 -2.121166,1.36745 -1.851281,1.412256 -3.449753,3.154466 -4.68385,5.129951 -1.812251,2.873351 -2.883579,6.215858 -3.024498,9.613292 -0.283298,6.068724 2.458299,12.196775 7.179659,16.021989 3.463877,2.843795 7.923283,4.433748 12.402962,4.450745 3.223314,0.01407 6.457323,-0.755305 9.293276,-2.297412 3.939453,-2.109826 7.111632,-5.603155 8.846974,-9.720044 0.645159,-1.50978 1.097403,-3.102267 1.315139,-4.730489 0.105446,-0.752338 0.203205,-1.508913 0.242105,-2.267173 0.01149,-0.581789 -0.02923,-1.162149 -0.03669,-1.743108 0.03179,-0.421019 -0.02925,-0.837313 -0.113078,-1.248449 -0.08616,-0.680199 -0.174563,-1.361396 -0.35867,-2.023567 -0.142203,-0.554887 -0.335132,-1.094781 -0.472616,-1.651285 -0.308331,-0.956311 -0.578739,-1.94681 -1.145531,-2.790063 -0.267134,-0.501114 -0.492587,-1.025464 -0.820389,-1.492351 -0.52186,-0.876712 -1.131302,-1.69766 -1.808478,-2.460353 -1.129901,-1.298797 -2.434746,-2.44308 -3.856342,-3.412525 -0.702238,-0.462155 -1.382105,-0.969302 -2.163568,-1.294175 -0.748319,-0.324373 -1.484708,-0.676504 -2.254723,-0.947895 -0.351088,-0.139582 -0.699093,-0.286608 -1.073566,-0.349209 -0.361871,-0.08631 -0.706868,-0.236566 -1.062161,-0.337044 -0.430905,-0.05201 -0.856476,-0.143219 -1.287779,-0.192771 -0.386505,-0.114623 -0.785653,-0.174589 -1.188877,-0.159594 -0.313659,-0.03941 -0.626978,-0.08603 -0.945426,-0.07328 -0.293969,0.0077 -0.588682,-7.61e-4 -0.880309,-0.02074 -0.226477,0.03989 -0.483619,-0.09325 -0.676794,-0.08233 z" /><path
       id="path2"
       style="fill:#ffffff;fill-opacity:1;stroke:#000000;stroke-width:2.11667;stroke-dasharray:none;stroke-opacity:1"
       d="m 68.951172,22.765625 c -6.357009,0.389121 -12.561885,2.716693 -17.665773,6.514887 -4.189808,3.11511 -7.611046,7.257192 -9.858437,11.971143 -2.123668,4.420948 -3.216994,9.342205 -3.087058,14.249184 0.157358,6.70241 2.407275,13.344138 6.382673,18.745634 2.949621,4.031801 6.883249,7.332104 11.358933,9.549473 4.334858,2.165252 9.160662,3.314462 14.002118,3.403649 3.808689,0.112351 7.619146,0.130816 11.429233,0.1373 9.495613,0.02698 18.991279,0.03135 28.486909,0.0552 1.57015,0.0063 3.14047,0.0099 4.71023,-0.02482 0.70644,0.01946 1.51056,0.05088 2.07534,-0.449129 0.31161,-0.284271 0.58952,-0.725578 0.4699,-1.159384 -0.28255,-0.57519 -0.97393,-0.770643 -1.56708,-0.810055 -1.1521,-0.0852 -2.30546,-0.164335 -3.46151,-0.16056 -2.39824,-0.03717 -4.79598,0.04034 -7.19413,0.04257 -7.2185,-0.02362 -14.437049,-0.0081 -21.655567,-6.38e-4 0.07396,-0.294136 0.460787,-0.244855 0.638068,-0.44326 2.958436,-1.60763 5.892216,-3.350227 8.330682,-5.699318 5.094506,-4.773874 8.685947,-11.17279 9.931127,-18.055507 0.44768,-2.406158 0.6048,-4.865279 0.45525,-7.308478 -0.22131,-4.163098 -1.29955,-8.269458 -3.071484,-12.03894 -3.416571,-7.204717 -9.60729,-13.024857 -16.967548,-16.072606 -2.584524,-1.080948 -5.319873,-1.785539 -8.098186,-2.13436 -1.870854,-0.237343 -3.758404,-0.330274 -5.64369,-0.311985 z m 1.914062,7.746094 c 0.230385,0.03871 0.462901,0.05619 0.69336,0.08008 0.276146,0.08568 0.54283,0.200064 0.830078,0.244141 0.330962,0.06538 0.669086,0.131014 0.962431,0.302666 0.318248,0.09806 0.577962,0.323835 0.894292,0.428684 0.711204,0.330505 1.351864,0.796149 1.948082,1.301574 0.382284,0.329618 0.735474,0.693367 1.006922,1.121105 0.360616,0.493923 0.648477,1.035418 0.926624,1.578079 0.347817,0.74262 0.568195,1.535735 0.711611,2.34143 0.101041,0.650453 0.06615,1.315794 0.04818,1.972244 -0.02302,0.478477 -0.171042,0.939109 -0.26307,1.407062 -0.139196,0.471824 -0.286415,0.942842 -0.498743,1.388952 -0.08556,0.282294 -0.250242,0.519753 -0.412829,0.761574 -0.329839,0.563077 -0.740798,1.07068 -1.18678,1.545067 -0.198667,0.213746 -0.418518,0.418313 -0.660103,0.584314 -0.337001,0.183505 -0.608224,0.468313 -0.966875,0.617045 -0.533505,0.284219 -1.116024,0.451034 -1.680786,0.656416 -0.327367,0.191741 -0.728874,0.138136 -1.088406,0.226674 -0.565289,0.09009 -1.141807,0.07637 -1.712712,0.09151 -0.244316,-0.01885 -0.483279,-0.01442 -0.726935,-0.03192 -0.312707,-0.04263 -0.615804,-0.131632 -0.929808,-0.171389 -0.508241,-0.13262 -1.015152,-0.288373 -1.496972,-0.496532 -0.260603,-0.142387 -0.537005,-0.256474 -0.815968,-0.350652 -0.260686,-0.137798 -0.493152,-0.320791 -0.735256,-0.483587 -0.399998,-0.195661 -0.766018,-0.457801 -1.05532,-0.798135 -0.305893,-0.277369 -0.654936,-0.522111 -0.857422,-0.892578 -0.18257,-0.221083 -0.378966,-0.435677 -0.49666,-0.699659 -0.361115,-0.505037 -0.567152,-1.100461 -0.775818,-1.679464 -0.247098,-0.788305 -0.40368,-1.612154 -0.3701,-2.44119 -0.03361,-0.454889 0.07718,-0.906067 0.07617,-1.361328 0.09533,-0.377059 0.205656,-0.752163 0.30322,-1.130233 0.136983,-0.449796 0.278884,-0.905261 0.542483,-1.299454 0.141907,-0.385016 0.423992,-0.692097 0.613763,-1.051281 0.378337,-0.565973 0.808,-1.106421 1.352324,-1.521628 0.584862,-0.552619 1.270734,-0.986014 1.975319,-1.368498 0.494993,-0.251303 1.037243,-0.380943 1.560078,-0.558822 0.674711,-0.178465 1.365467,-0.31575 2.06694,-0.307697 0.0731,-0.0043 0.145379,-0.01315 0.218685,-0.0046 z m 17.376954,12.285156 c 0.85814,0.02712 1.683683,0.316723 2.475621,0.627549 1.460206,0.654103 2.715228,1.742264 3.623988,3.054092 0.726936,1.063045 1.165096,2.307901 1.31489,3.584249 0.245311,1.843555 -0.143442,3.739588 -0.949656,5.404032 -0.379071,0.733352 -0.959049,1.336921 -1.54839,1.904639 -1.034041,0.97318 -2.353966,1.596145 -3.726442,1.924921 -1.256608,0.330857 -2.592498,0.290723 -3.855895,0.01738 -0.504145,-0.127528 -0.978939,-0.343639 -1.465707,-0.521259 -0.538894,-0.241024 -1.031371,-0.574495 -1.546733,-0.85794 -1.128226,-0.883362 -2.128285,-1.967677 -2.743018,-3.273791 -0.452608,-0.88344 -0.730664,-1.856965 -0.765464,-2.851346 -0.02973,-0.799288 -0.02472,-1.612946 0.192175,-2.388957 0.272057,-1.091861 0.73267,-2.140721 1.395201,-3.052775 1.067778,-1.599764 2.802064,-2.656703 4.635021,-3.157307 0.964623,-0.259841 1.963088,-0.426457 2.964409,-0.41349 z m -34.214844,0.02539 c 1.90098,0.09215 3.743491,0.896331 5.161313,2.154894 0.902227,0.803635 1.65322,1.782355 2.13627,2.893281 0.370129,0.877649 0.647899,1.804363 0.698511,2.760418 0.223803,2.528844 -0.749972,5.165881 -2.664823,6.854552 -2.168069,1.944054 -5.399354,2.634465 -8.160109,1.682312 -2.188619,-0.685218 -4.155111,-2.238068 -5.1119,-4.349393 -1.428243,-3.050234 -0.79414,-6.965784 1.603257,-9.351248 1.63857,-1.682371 3.977576,-2.707577 6.337481,-2.644816 z m 7.080078,19.841796 c 3.359429,0.296213 6.357285,2.992436 6.976562,6.3125 0.477203,2.317971 0.193487,4.834948 -1.015625,6.892579 -1.296973,1.956627 -3.508894,3.191468 -5.805222,3.535986 -2.93099,0.461012 -6.037043,-0.959257 -7.666074,-3.427033 -1.571268,-2.1761 -2.192745,-5.078175 -1.419329,-7.673406 0.716737,-2.229545 2.551338,-3.993532 4.694904,-4.868898 1.333935,-0.559261 2.791022,-0.808337 4.234784,-0.771728 z m 20.486328,0.03125 c 3.364299,0.29554 6.438776,2.76352 7.405072,6.007493 0.880584,2.801184 0.19898,6.091851 -1.879724,8.199582 -1.683619,1.678308 -4.143107,2.447376 -6.490335,2.281632 -2.371449,-0.156146 -4.740761,-1.161822 -6.311089,-2.979889 -1.495495,-1.741592 -2.067636,-4.177244 -1.65694,-6.420118 0.422687,-2.467322 2.008599,-4.681102 4.162794,-5.941144 1.430184,-0.845655 3.109752,-1.2686 4.770222,-1.147556 z" /><path
       style="fill:#ffffff;fill-opacity:0;stroke:#000000;stroke-width:2.64583;stroke-dasharray:none;stroke-opacity:1"
       d="m 70.105469,50.521225 c -0.319793,0.03814 -0.643165,0.04794 -0.95235,0.146003 -0.683215,0.179439 -1.326823,0.505707 -1.906959,0.905273 -1.278852,0.921942 -2.156618,2.413089 -2.23236,3.999142 -0.139206,2.048774 0.85415,4.182169 2.619049,5.271526 1.482436,0.946846 3.438388,1.103606 5.043362,0.374922 1.796908,-0.781899 3.156633,-2.522894 3.399943,-4.47737 0.219198,-1.555017 -0.26937,-3.216377 -1.385184,-4.338267 C 74.052611,51.73199 73.264147,51.19928 72.388394,50.892511 72.030037,50.73773 71.64251,50.677415 71.263672,50.59349 70.892781,50.52746 70.515956,50.51855 70.140625,50.49974 Z"
       id="path46" /></g></svg>
