<?xml version="1.0" encoding="UTF-8" standalone="no"?>
<!-- Created with Inkscape (http://www.inkscape.org/) -->

<svg
   width="310.00043"
   height="296.55142"
   viewBox="0 0 82.020945 78.462563"
   version="1.1"
   id="svg1"
   xml:space="preserve"
   xmlns="http://www.w3.org/2000/svg"
   xmlns:svg="http://www.w3.org/2000/svg"><defs
     id="defs1" /><g
     id="layer1"
     transform="translate(-77.520249,-79.189035)"><path
       id="path2"
       style="fill:none;fill-opacity:1;stroke:#000000;stroke-width:2.64583;stroke-dasharray:none;stroke-opacity:1"
       d="m 109.04235,140.45293 -0.0518,-0.36437 c -0.0552,-0.91848 -0.17198,-1.81542 -0.3844,-2.68325 l -1.30175,-9.08542 c -0.77485,-5.40997 -0.9302,-10.83544 -0.60476,-16.23407 13.37884,-1.93335 26.31999,-5.73466 38.57473,-11.36877 0.18597,2.53508 0.32053,5.05959 0.32053,7.5376 0,4.14148 -0.25098,8.18318 -0.76578,12.35075 -0.25476,2.07433 1.21632,3.96081 3.28877,4.21519 2.07093,0.2952 3.95892,-1.21444 4.21519,-3.28499 0.55184,-4.48091 0.82134,-8.82575 0.82134,-13.28095 0,-4.32707 -0.35908,-8.760733 -0.88409,-13.217072 0.008,-0.312209 -0.0435,-0.613078 -0.11528,-0.92453 -0.19088,-1.516818 -0.31485,-3.025699 -0.56583,-4.547054 -0.87539,-5.248577 -5.36726,-9.054041 -10.68274,-9.054041 -11.57552,0 -22.97566,3.152321 -32.94176,9.094863 l -0.50951,0.299357 c -3.51745,2.140857 -5.9981,5.680604 -6.80471,9.703783 -1.816927,9.018894 -2.129514,18.211274 -1.070802,27.367364 -1.740203,-0.70039 -3.629706,-1.10822 -5.617483,-1.10822 -8.336642,0 -15.119047,6.78051 -15.119047,15.11904 0,8.33854 6.782405,15.11905 15.119047,15.11905 8.336645,0 15.119045,-6.78051 15.119045,-15.11905 0,-0.15005 -0.0401,-0.28915 -0.0442,-0.43769 -0.004,-0.0336 0.0102,-0.0639 0.005,-0.0975 z m -0.97971,-39.35526 c 0.39309,-1.960184 1.60375,-3.687536 3.26836,-4.699 l 0.48003,-0.284238 c 8.82196,-5.259917 18.88218,-8.042955 29.09547,-8.042955 1.60564,0 2.9622,1.151693 3.22414,2.727854 0.1081,0.656922 0.14779,1.306663 0.24417,1.96283 -11.67455,5.636003 -24.02303,9.524999 -36.82168,11.567579 0.17197,-1.07723 0.2933,-2.15975 0.50951,-3.23207 z m -14.100405,47.45 c -4.169077,0 -7.559523,-3.39234 -7.559523,-7.55953 0,-4.16718 3.390446,-7.55952 7.559523,-7.55952 3.424465,0 6.289905,2.30301 7.216325,5.43001 l 0.32732,2.28486 c -0.0847,4.09424 -3.427484,7.40418 -7.543645,7.40418 z m 61.349315,-13.64268 c -3.9404,-3.44752 -8.27919,-6.32656 -12.89315,-8.55964 -2.04296,-0.98539 -4.35012,-0.92264 -6.33412,0.16971 -2.09096,1.15169 -3.51026,3.31107 -3.79261,5.77661 l -0.0628,0.51669 c -0.62366,5.42585 -0.62366,10.93334 0.002,16.37053 l 0.059,0.50573 c 0.28424,2.46554 1.70165,4.62492 3.7945,5.77661 1.04813,0.57566 2.18508,0.86745 3.32581,0.86745 1.02054,0 2.04485,-0.23245 3.00831,-0.69774 4.61396,-2.23308 8.95313,-5.11213 12.87312,-8.54151 l 0.34131,-0.29519 c 1.6442,-1.43934 2.58536,-3.55449 2.58536,-5.8061 0,-2.2516 -0.94116,-4.36676 -2.60615,-5.82461 z m -4.97568,6.47436 c -3.25022,2.84238 -6.80281,5.23761 -10.57161,7.13128 l -0.0238,-0.20676 c -0.55902,-4.85397 -0.55902,-9.77786 -0.002,-14.62087 l 0.0257,-0.21772 c 3.7688,1.89366 7.32328,4.28928 10.59164,7.1498 l 0.32128,0.46869 z" /></g></svg>
