<?xml version="1.0" encoding="UTF-8" standalone="no"?>
<!-- Created with Inkscape (http://www.inkscape.org/) -->

<svg
   width="307.60175"
   height="295.25574"
   viewBox="0 0 307.60175 295.25574"
   version="1.1"
   id="svg1"
   xml:space="preserve"
   xmlns="http://www.w3.org/2000/svg"
   xmlns:svg="http://www.w3.org/2000/svg"><defs
     id="defs1" /><g
     id="layer1"
     transform="translate(-506.51616,-532.66064)"><path
       style="line-height:normal;font-variant-ligatures:normal;font-variant-position:normal;font-variant-caps:normal;font-variant-numeric:normal;font-variant-alternates:normal;font-feature-settings:normal;text-indent:0;text-align:start;text-decoration-line:none;text-decoration-style:solid;text-decoration-color:#000000;text-transform:none;text-orientation:mixed;shape-padding:0;isolation:auto;mix-blend-mode:normal;fill:#676767;fill-opacity:1;stroke:#000000;stroke-width:8;stroke-dasharray:none;stroke-opacity:1"
       d="m 626.36719,536.65625 c -2.18425,1.51497 -4.36849,3.02995 -6.55274,4.54492 -1.06334,1.53338 -0.4493,3.60031 0.64063,4.94141 11.22243,15.35285 22.45186,30.7006 33.66992,46.05664 0.78476,0.74674 0.0726,1.78598 -0.87732,1.76468 -1.7047,0.0516 -3.4169,-0.003 -5.12493,0.0135 -37.53279,-0.0568 -75.06577,-0.12755 -112.59846,-0.17561 -3.04924,0.0709 -6.19409,0.21696 -9.02587,1.46485 -1.55493,0.54964 -2.82791,1.64101 -4.34745,2.26639 -1.70922,0.72482 -2.96535,2.13601 -4.29928,3.37402 -0.72226,0.66581 -1.51304,1.2952 -1.88685,2.2394 -0.4481,0.91107 -1.0135,1.76412 -1.28125,2.75586 -0.29366,1.04168 -1.13567,1.81108 -1.38086,2.8711 -0.32491,1.62489 -1.02589,3.13719 -1.40837,4.74537 -0.12539,1.17715 -0.575,2.27492 -0.85334,3.41674 -0.22144,2.48587 -0.36348,4.98554 -0.4784,7.48079 -0.1635,3.41696 0.20135,6.82901 0.12996,10.24687 -0.13239,47.52675 -0.0842,95.05389 -0.0816,142.58082 0.007,4.66088 -0.006,9.3232 0.0359,13.98315 0.30402,5.26092 3.12747,10.20698 7.23092,13.45198 3.72888,3.43174 7.84957,6.53637 10.82526,10.69389 1.47737,2.45816 2.4425,5.32678 4.67188,7.24804 2.04383,1.46007 4.94157,1.70377 7.13867,0.43946 2.98653,-2.84714 4.88588,-6.56711 7.33789,-9.83985 1.71204,-1.40285 4.05752,-1.25325 6.13672,-1.30859 73.22721,-0.0866 146.45443,-0.17318 219.68164,-0.25977 0.15823,2.55341 0.36964,5.13383 1.1543,7.58399 3.47614,4.2841 10.63343,4.85247 14.67187,1.05469 1.80287,-1.76267 2.56835,-4.30812 2.76368,-6.76368 0.39863,-1.94414 2.24456,-3.05763 3.88281,-3.88867 5.71444,-3.16228 10.3184,-8.51983 12.03436,-14.87667 1.39307,-4.94512 1.3993,-10.12682 1.67347,-15.21832 0.40679,-10.93132 0.2168,-21.87207 0.25498,-32.80808 -0.0534,-43.20158 -0.10672,-86.40316 -0.16008,-129.60474 -0.17499,-6.35127 -3.08208,-12.55055 -7.79101,-16.80469 -7.0633,-4.43841 -15.50788,-6.37492 -23.80078,-6.20312 -36.56836,-0.15104 -73.13672,-0.30209 -109.70508,-0.45313 -0.92923,0.0509 -2.09875,0.19107 -2.73438,-0.6543 -0.37927,-1.16355 0.63527,-2.12801 1.27365,-2.96905 10.20361,-13.18726 20.0692,-26.63085 30.09563,-39.9521 1.59301,-2.07604 3.16942,-4.16562 4.65416,-6.32103 0.51256,-1.02014 -0.32956,-2.11744 -1.17969,-2.63477 -1.71219,-1.30327 -3.47565,-2.55134 -5.37109,-3.57617 -1.48224,-0.44596 -2.87767,0.63828 -3.75269,1.732 -2.06766,2.27963 -3.69958,4.90445 -5.59299,7.3231 -7.87892,10.72968 -15.75783,21.45936 -23.63674,32.18904 -0.44338,1.37259 -2.61145,1.70993 -3.39063,0.46484 -6.01747,-7.67655 -11.72983,-15.58514 -17.58355,-23.38591 -4.64338,-6.23985 -9.28675,-12.4797 -13.93012,-18.71955 -0.33694,-0.22839 -0.6733,-0.66241 -1.13281,-0.50977 z"
       id="path7" /><path
       style="line-height:normal;font-variant-ligatures:normal;font-variant-position:normal;font-variant-caps:normal;font-variant-numeric:normal;font-variant-alternates:normal;font-feature-settings:normal;text-indent:0;text-align:start;text-decoration-line:none;text-decoration-style:solid;text-decoration-color:#000000;text-transform:none;text-orientation:mixed;shape-padding:0;isolation:auto;mix-blend-mode:normal;fill:#757575;fill-opacity:1;stroke:#000000;stroke-width:8;stroke-dasharray:none;stroke-opacity:1"
       d="m 745.74609,738.12695 c -5.79298,0.582 -11.06504,4.37554 -13.6768,9.54676 -2.43406,4.46978 -3.11165,9.92572 -1.63224,14.81393 1.19025,3.281 3.59304,5.95667 6.19479,8.20633 1.92114,1.4556 3.99261,2.88901 6.42482,3.27937 1.03427,0.2474 2.08917,0.4912 3.15817,0.33781 2.11424,-0.12742 4.27844,-0.11229 6.32979,-0.68281 1.19938,-0.54561 2.415,-1.05273 3.65089,-1.50518 1.84501,-0.81817 3.45714,-2.09966 4.86382,-3.5301 1.0579,-1.27509 2.0132,-2.64057 2.8918,-4.04258 1.14112,-1.97529 1.83163,-4.20232 1.97804,-6.47993 0.2651,-1.78103 -0.22292,-3.54386 -0.35486,-5.31426 -0.24797,-1.35191 -0.83222,-2.60435 -1.31064,-3.8852 -1.50037,-3.1314 -3.76946,-5.93952 -6.71417,-7.81689 -3.2127,-2.17721 -7.17603,-3.12766 -11.0316,-2.97499 -0.25727,0.0159 -0.51454,0.0318 -0.77181,0.0477 z"
       id="path6" /><path
       style="line-height:normal;font-variant-ligatures:normal;font-variant-position:normal;font-variant-caps:normal;font-variant-numeric:normal;font-variant-alternates:normal;font-feature-settings:normal;text-indent:0;text-align:start;text-decoration-line:none;text-decoration-style:solid;text-decoration-color:#000000;text-transform:none;text-orientation:mixed;shape-padding:0;isolation:auto;mix-blend-mode:normal;fill:#6d6d6d;fill-opacity:1;stroke:#000000;stroke-width:8;stroke-dasharray:none;stroke-opacity:1"
       d="m 762.88281,687.54171 c -2.53463,0.20344 -5.08018,0.32655 -7.61523,0.0766 -2.87087,-0.0177 -5.74299,0.10711 -8.61482,0.11605 -5.61985,0.0584 -11.23985,0.0826 -16.85979,0.11929 -0.64392,1.47634 -0.1971,3.25013 -0.42328,4.85173 -0.0641,2.66311 -0.22516,5.33657 -0.0279,7.99614 0.36016,1.77693 1.89914,3.03525 3.21093,2.37228 3.32242,-0.8307 6.70707,-0.16665 10.05818,-0.32687 7.61138,0.0702 15.22294,0.0336 22.8344,0.0227 1.06879,-0.75032 0.17029,-2.52469 0.42935,-3.74332 0.0786,-1.7503 0.25585,-3.4944 0.35085,-5.23948 0.23657,-1.60967 0.0965,-3.34315 -0.35517,-4.85495 -0.5921,-1.40848 -1.92994,-1.51838 -2.98753,-1.39032 z"
       id="path5" /><path
       style="line-height:normal;font-variant-ligatures:normal;font-variant-position:normal;font-variant-caps:normal;font-variant-numeric:normal;font-variant-alternates:normal;font-feature-settings:normal;text-indent:0;text-align:start;text-decoration-line:none;text-decoration-style:solid;text-decoration-color:#000000;text-transform:none;text-orientation:mixed;shape-padding:0;isolation:auto;mix-blend-mode:normal;fill:#9a9a9a;fill-opacity:1;stroke:#000000;stroke-width:8;stroke-dasharray:none;stroke-opacity:1"
       d="m 763.0918,655.95194 c -1.27968,0.49417 -2.63575,0.41879 -3.95173,0.46288 -1.09406,-0.30652 -2.1649,-0.0596 -3.25079,0.12205 -3.02787,0.1294 -6.0587,-0.0831 -9.08799,0.003 -4.87135,0.0483 -9.74726,-10e-4 -14.61574,0.0236 -0.82995,-0.12059 -1.95141,-0.48669 -2.50391,0.72291 -0.54525,1.36114 3.4e-4,2.97386 -0.23242,4.42926 -0.12235,2.93163 -0.39722,5.8973 -0.0488,8.81834 0.38762,1.73671 1.70868,2.8886 2.93164,2.52158 6.66229,-0.34316 13.32985,-0.44305 19.99527,-0.28958 1.81675,-0.022 3.64392,-0.26899 5.452,0.10311 1.29809,-0.15906 2.60223,-0.23886 3.90429,-0.15204 1.25031,-0.69312 2.56537,0.61537 3.81055,-0.009 0.93434,-0.66437 0.7093,-2.47183 0.62285,-3.70763 -0.16817,-2.44592 0.34748,-4.88911 0.007,-7.32393 -0.27267,-1.43675 0.18895,-3.14584 -0.48327,-4.37132 -0.59184,-1.23993 -1.62132,-0.88085 -2.42231,-1.40476 z"
       id="path3" /><path
       style="line-height:normal;font-variant-ligatures:normal;font-variant-position:normal;font-variant-caps:normal;font-variant-numeric:normal;font-variant-alternates:normal;font-feature-settings:normal;text-indent:0;text-align:start;text-decoration-line:none;text-decoration-style:solid;text-decoration-color:#000000;text-transform:none;text-orientation:mixed;shape-padding:0;isolation:auto;mix-blend-mode:normal;fill:#bebebe;fill-opacity:1;stroke:#000000;stroke-width:8;stroke-dasharray:none;stroke-opacity:1"
       d="m 761.8468,625.51042 c -1.20937,0.15758 -2.4293,-0.10751 -3.63506,0.12652 -1.63127,-0.0162 -3.263,0.12777 -4.89286,0.008 -4.66871,0.0884 -9.33803,0.10682 -14.00705,0.1434 -3.09099,-0.0147 -6.18193,-0.0456 -9.2729,-0.0701 0.0644,3.44666 -0.14752,6.88545 -0.20615,10.32698 -0.0177,1.77016 0.12492,3.92181 1.26409,4.96817 1.25929,0.97503 2.72525,0.25984 4.07745,0.39525 10.05004,-0.16109 20.10001,-0.33116 30.14991,-0.50905 0.27239,-1.44159 -0.20059,-2.92351 0.0528,-4.36771 0.0811,-2.8742 0.38069,-5.78347 -0.01,-8.63791 -0.34696,-1.5999 -1.54168,-2.58271 -2.67896,-2.40071 -0.28077,-0.0125 -0.56123,0.004 -0.84184,0.0164 z"
       id="path2" /><path
       style="line-height:normal;font-variant-ligatures:normal;font-variant-position:normal;font-variant-caps:normal;font-variant-numeric:normal;font-variant-alternates:normal;font-feature-settings:normal;text-indent:0;text-align:start;text-decoration-line:none;text-decoration-style:solid;text-decoration-color:#000000;text-transform:none;text-orientation:mixed;shape-padding:0;isolation:auto;mix-blend-mode:normal;fill:#ffffff;fill-opacity:1;stroke:#000000;stroke-width:8;stroke-dasharray:none;stroke-opacity:1"
       d="m 626.67773,631.03516 c -19.30211,0.0445 -38.60419,0.0992 -57.90625,0.16406 -5.07449,0.37687 -9.92818,2.68512 -13.55306,6.23475 -1.42692,1.32408 -2.51465,2.96399 -3.57389,4.58361 -1.00723,1.7735 -1.69148,3.71421 -2.26098,5.66564 -0.51022,2.1596 -0.68587,4.38134 -1.09902,6.55869 -0.24787,1.89053 -0.0485,3.81562 -0.42326,5.69353 -0.21609,1.53527 -0.0973,3.09047 -0.18711,4.63585 -0.0901,3.63787 -0.24671,7.27409 -0.21511,10.9138 -0.0855,2.5532 0.13502,5.10294 0.0488,7.65655 0.008,4.80124 0.0868,9.60271 0.0744,14.40436 0.039,18.22361 0.0875,36.4472 0.13059,54.6708 0.62377,7.98514 5.56087,15.5231 12.68462,19.20611 4.27464,2.15759 9.13609,2.61763 13.8506,2.80121 8.08602,0.32073 16.18087,0.20965 24.27124,0.21901 6.20144,-0.004 12.40328,-0.10003 18.60398,0.029 7.6993,0.0978 15.3982,-0.0953 23.0972,-0.14929 10.28137,-0.11287 20.56651,-0.22024 30.83806,-0.71155 2.35608,-0.15218 4.67286,-0.78639 6.75136,-1.91256 5.37644,-2.7799 9.38304,-7.96063 10.89672,-13.8035 0.98885,-3.59827 1.26687,-7.34239 1.54109,-11.0495 0.45787,-7.52575 0.40143,-15.0698 0.46513,-22.60589 0.0121,-23.92895 -0.0525,-47.85785 -0.0898,-71.78676 -0.18296,-5.51805 -3.16369,-10.6372 -7.21231,-14.25845 -4.15271,-3.71883 -9.61235,-5.75904 -15.12637,-6.23398 -13.83945,-1.1091 -27.73569,-0.90674 -41.60664,-0.92553 z"
       id="path4" /></g></svg>
